<?xml version="1.0" encoding="utf-8"?>
<!-- Generator: Adobe Illustrator 19.2.0, SVG Export Plug-In . SVG Version: 6.00 Build 0)  -->
<svg version="1.1" id="Layer_1" xmlns="http://www.w3.org/2000/svg" xmlns:xlink="http://www.w3.org/1999/xlink" x="0px" y="0px"
	 viewBox="0 0 256 256" style="enable-background:new 0 0 256 256;" xml:space="preserve">
<style type="text/css">
	.st0{stroke:#000000;stroke-width:3;stroke-miterlimit:10;}
	.st1{fill:#FFFFFF;}
</style>
<path class="st0" d="M127,110.5c0,0.4,0,0.8,0,1.2c0,4.4,0.8,8.5,2.5,12.3c1.7,3.9,3.9,7.2,6.8,10.1c2.9,2.9,6.2,5.2,10.1,6.9
	c3.8,1.7,7.9,2.6,12.3,2.6h52.9c2.9,0,5.7-0.6,8.2-1.7c2.6-1.1,4.8-2.7,6.7-4.6c1.9-1.9,3.4-4.2,4.5-6.7c1.1-2.6,1.7-5.3,1.7-8.2
	c0-2.9-0.6-5.7-1.7-8.2c-1.1-2.6-2.6-4.8-4.5-6.7c-1.9-1.9-4.1-3.3-6.7-4.4c-2.6-1.1-5.3-1.5-8.2-1.5c-0.2,0-0.3,0-0.5,0
	c-0.2,0-0.3,0-0.5,0c0.3-1,0.5-1.9,0.7-2.8c0.2-0.9,0.2-1.9,0.2-2.8c0-2.2-0.4-4.3-1.2-6.2c-0.8-1.9-2-3.6-3.4-5.1
	c-1.4-1.4-3.1-2.6-5-3.4c-1.9-0.8-4-1.2-6.2-1.2c-2.5,0-4.9,0.6-7.1,1.7c-2.3,1.1-4.1,2.7-5.6,4.7c-0.3,0.4-0.7,0.9-1,1.4
	c-0.3,0.5-0.5,1-0.7,1.5c-1.5-1.5-3.1-2.8-4.9-4c-1.7-1.2-3.5-2.1-5.5-2.9c-1.9-0.8-3.9-1.4-6-1.8c-2-0.4-4.1-0.6-6.3-0.6
	c-2.8,0-5.6,0.4-8.2,1.1v5.5c2.6-0.9,5.3-1.3,8.2-1.3c1.9,0,3.7,0.2,5.6,0.6c1.8,0.4,3.6,1,5.3,1.7c1.7,0.8,3.3,1.7,4.8,2.8
	c1.5,1.1,2.9,2.4,4.1,3.8c0.3,0.3,0.7,0.7,1,1.1c0.3,0.4,0.6,0.8,0.9,1.2c0.3,0.5,0.7,0.8,1.3,1c0.5,0.2,1.1,0.2,1.6,0
	c0.5-0.1,1-0.4,1.4-0.9c0.4-0.4,0.6-0.9,0.6-1.5c0-1,0.2-2,0.6-2.9s0.8-1.8,1.4-2.7c1-1.4,2.3-2.4,3.8-3.2c1.5-0.8,3.1-1.1,4.7-1.1
	c1.5,0,2.9,0.3,4.1,0.9c1.3,0.6,2.4,1.3,3.4,2.3c1,0.9,1.7,2.1,2.3,3.4c0.5,1.3,0.8,2.7,0.8,4.1c0,1.4-0.2,2.7-0.7,3.9
	c-0.5,1.3-1.2,2.4-2.2,3.3c-0.4,0.4-0.6,1-0.7,1.6c-0.1,0.6,0.1,1.2,0.4,1.7c0.3,0.5,0.8,0.9,1.3,1.1c0.6,0.2,1.2,0.2,1.8,0
	c0.9-0.3,1.7-0.5,2.7-0.7c0.9-0.2,1.8-0.3,2.8-0.3c2.2,0,4.2,0.4,6.1,1.3c1.9,0.8,3.6,2,5,3.4c1.4,1.4,2.6,3.1,3.4,5
	c0.8,1.9,1.3,4,1.3,6.2c0,2.2-0.4,4.2-1.3,6.1c-0.8,1.9-2,3.6-3.4,5c-1.4,1.4-3.1,2.8-5,3.6c-1.9,0.8-4,1.4-6.1,1.4h-52.9
	c-3.6,0-7-0.9-10.2-2.3c-3.2-1.4-6-3.4-8.4-5.8c-2.4-2.4-4.3-5.2-5.7-8.5c-1.4-3.2-2.1-6.7-2.1-10.3"/>
<path class="st0" d="M231,114.1c-1.1-2.6-2.6-4.8-4.5-6.7c-1.9-1.9-4.1-3.3-6.7-4.4c-2.6-1.1-5.3-1.5-8.2-1.5c-0.2,0-0.3,0-0.5,0
	c-0.2,0-0.3,0-0.5,0c0.3-1,0.5-1.9,0.7-2.8c0.2-0.9,0.2-1.9,0.2-2.8c0-2.2-0.4-4.3-1.2-6.2c-0.8-1.9-2-3.6-3.4-5.1
	c-1.4-1.4-3.1-2.6-5-3.4c-1.9-0.8-4-1.2-6.2-1.2c-2.5,0-4.9,0.6-7.1,1.7c-2.3,1.1-4.1,2.7-5.6,4.7c-0.3,0.4-0.7,0.9-1,1.4
	c-0.3,0.5-0.5,1-0.7,1.5c-1.5-1.5-3.1-2.8-4.9-4c-1.7-1.2-3.5-2.1-5.5-2.9c-1.9-0.8-3.9-1.4-6-1.8c-2-0.4-4.1-0.6-6.3-0.6
	c-2.8,0-5.6,0.4-8.2,1.1v5.5c2.6-0.9,5.3-1.3,8.2-1.3c1.9,0,3.7,0.2,5.6,0.6c1.8,0.4,3.6,1,5.3,1.7c1.7,0.8,3.3,1.7,4.8,2.8
	c1.5,1.1,2.9,2.4,4.1,3.8c0.3,0.3,0.7,0.7,1,1.1c0.3,0.4,0.6,0.8,0.9,1.2c0.3,0.5,0.7,0.8,1.3,1c0.5,0.2,1.1,0.2,1.6,0
	c0.5-0.1,1-0.4,1.4-0.9c0.4-0.4,0.6-0.9,0.6-1.5c0-1,0.2-2,0.6-2.9s0.8-1.8,1.4-2.7c1-1.4,2.3-2.4,3.8-3.2c1.5-0.8,3.1-1.1,4.7-1.1
	c1.5,0,2.9,0.3,4.1,0.9c1.3,0.6,2.4,1.3,3.4,2.3c1,0.9,1.7,2.1,2.3,3.4c0.5,1.3,0.8,2.7,0.8,4.1c0,1.4-0.2,2.7-0.7,3.9
	c-0.5,1.3-1.2,2.4-2.2,3.3c-0.4,0.4-0.6,1-0.7,1.6c-0.1,0.6,0.1,1.2,0.4,1.7c0.3,0.5,0.8,0.9,1.3,1.1c0.6,0.2,1.2,0.2,1.8,0
	c0.9-0.3,1.7-0.5,2.7-0.7c0.9-0.2,1.8-0.3,2.8-0.3c2.2,0,4.2,0.4,6.1,1.3c1.9,0.8,3.6,2,5,3.4c1.4,1.4,2.6,3.1,3.4,5
	c0.8,1.9,1.3,4,1.3,6.2c0,2.2-0.4,4.2-1.3,6.1c-0.8,1.9-2,3.6-3.4,5c-1.4,1.4-3.1,2.8-5,3.6c-1.9,0.8-4,1.4-6.1,1.4h-52.9
	c-3.6,0-7-0.9-10.2-2.3c-3.2-1.4-6-3.4-8.4-5.8c-2.4-2.4-4.3-5.2-5.7-8.5c-1.4-3.2-2.1-6.7-2.1-10.3c0-0.4,0-0.8,0-1.2H127
	c0,0.4,0,0.8,0,1.2c0,4.4,0.8,8.5,2.5,12.3c1.7,3.9,3.9,7.2,6.8,10.1c2.9,2.9,6.2,5.2,10.1,6.9c3.8,1.7,7.9,2.6,12.3,2.6h52.9
	c2.9,0,5.7-0.6,8.2-1.7c2.6-1.1,4.8-2.7,6.7-4.6c1.9-1.9,3.4-4.2,4.5-6.7c1.1-2.6,1.7-5.3,1.7-8.2
	C232.7,119.4,232.1,116.6,231,114.1z"/>
<g>
	<path d="M56.4,87.7h7.1v5.5h-7.1V105h-6.9V93.1H26.5v-3.9l22.6-35.6h7.3V87.7z M33.9,87.7h15.7V63.6l-0.2,0l-0.7,1.8L33.9,87.7z"/>
	<path d="M101.9,85.4c0,6.6-1.5,11.6-4.4,15.1c-2.9,3.5-6.9,5.2-11.9,5.2c-5.1,0-9-1.8-12-5.3c-2.9-3.5-4.4-8.5-4.4-15.1V73.2
		c0-6.5,1.5-11.6,4.4-15.1c2.9-3.5,6.9-5.3,11.9-5.3c5.1,0,9,1.8,12,5.3c2.9,3.5,4.4,8.5,4.4,15.1V85.4z M94.9,71.7
		c0-4.4-0.8-7.8-2.4-10c-1.6-2.2-3.9-3.4-7-3.4c-3.1,0-5.4,1.1-7,3.4c-1.6,2.2-2.4,5.6-2.4,10v15c0,4.4,0.8,7.8,2.4,10.1
		c1.6,2.3,4,3.4,7,3.4c3.1,0,5.4-1.1,7-3.4c1.6-2.3,2.4-5.6,2.4-10.1V71.7z"/>
	<path d="M137.8,87.7h7.1v5.5h-7.1V105h-6.9V93.1h-23.1v-3.9l22.6-35.6h7.3V87.7z M115.2,87.7h15.7V63.6l-0.2,0l-0.7,1.8L115.2,87.7
		z"/>
</g>
<g>
	<path class="st1" d="M77.5,209.8c-4.4,0-8.5-0.8-12.3-2.5c-3.8-1.7-7.2-3.9-10.1-6.8c-2.9-2.9-5.1-6.2-6.8-10.1
		c-1.7-3.8-2.5-7.9-2.5-12.3c0-4.4,0.8-8.5,2.5-12.3c1.7-3.8,3.9-7.2,6.8-10.1c2.9-2.9,6.2-5.1,10.1-6.8c3.8-1.7,8-2.5,12.3-2.5
		c0.3,0,0.5,0,0.7,0c0.2,0,0.5,0,0.7,0c-0.5-1.2-0.8-2.5-1-3.9c-0.2-1.4-0.3-2.7-0.3-4.1c0-3.3,0.6-6.3,1.9-9.2
		c1.2-2.9,2.9-5.4,5.1-7.6c2.1-2.2,4.7-3.9,7.5-5.1c2.9-1.2,6-1.9,9.3-1.9c3.8,0,7.3,0.9,10.7,2.6c3.4,1.7,6.2,4.1,8.4,7.1
		c0.5,0.7,1,1.4,1.4,2.1c0.4,0.7,0.8,1.5,1.1,2.3c2.3-2.3,4.7-4.3,7.3-6c2.6-1.7,5.3-3.2,8.2-4.4c2.9-1.2,5.9-2.1,8.9-2.7
		c3.1-0.6,6.2-0.9,9.4-0.9c6.6,0,12.7,1.3,18.5,3.8c5.8,2.5,10.8,5.9,15.1,10.2c4.3,4.3,7.7,9.3,10.2,15.1
		c2.5,5.8,3.8,11.9,3.8,18.5c0,6.6-1.2,12.7-3.8,18.5c-2.5,5.8-5.9,10.8-10.2,15.1c-4.3,4.3-9.3,7.7-15.1,10.2
		c-5.8,2.5-11.9,3.8-18.5,3.8H77.5z"/>
</g>
<g>
	<path d="M77.5,209.8c-4.4,0-8.5-0.8-12.3-2.5c-3.8-1.7-7.2-3.9-10.1-6.8c-2.9-2.9-5.1-6.2-6.8-10.1c-1.7-3.8-2.5-7.9-2.5-12.3
		c0-4.4,0.8-8.5,2.5-12.3c1.7-3.8,3.9-7.2,6.8-10.1c2.9-2.9,6.2-5.1,10.1-6.8c3.8-1.7,8-2.5,12.3-2.5c0.3,0,0.5,0,0.7,0
		c0.2,0,0.5,0,0.7,0c-0.5-1.2-0.8-2.5-1-3.9c-0.2-1.4-0.3-2.7-0.3-4.1c0-3.3,0.6-6.3,1.9-9.2c1.2-2.9,2.9-5.4,5.1-7.6
		c2.1-2.2,4.7-3.9,7.5-5.1c2.9-1.2,6-1.9,9.3-1.9c3.8,0,7.3,0.9,10.7,2.6c3.4,1.7,6.2,4.1,8.4,7.1c0.5,0.7,1,1.4,1.4,2.1
		c0.4,0.7,0.8,1.5,1.1,2.3c2.3-2.3,4.7-4.3,7.3-6c2.6-1.7,5.3-3.2,8.2-4.4c2.9-1.2,5.9-2.1,8.9-2.7c3.1-0.6,6.2-0.9,9.4-0.9
		c6.6,0,12.7,1.3,18.5,3.8c5.8,2.5,10.8,5.9,15.1,10.2c4.3,4.3,7.7,9.3,10.2,15.1c2.5,5.8,3.8,11.9,3.8,18.5
		c0,6.6-1.2,12.7-3.8,18.5c-2.5,5.8-5.9,10.8-10.2,15.1c-4.3,4.3-9.3,7.7-15.1,10.2c-5.8,2.5-11.9,3.8-18.5,3.8H77.5z M156.8,122.6
		c-2.8,0-5.6,0.3-8.4,0.9c-2.7,0.6-5.4,1.5-7.9,2.6c-2.5,1.1-4.9,2.5-7.2,4.2c-2.3,1.7-4.3,3.6-6.2,5.7c-0.5,0.5-1,1.1-1.5,1.7
		c-0.5,0.6-0.9,1.2-1.4,1.8c-0.5,0.7-1.1,1.2-1.9,1.5c-0.8,0.3-1.6,0.3-2.4,0c-0.8-0.2-1.5-0.6-2.1-1.3c-0.5-0.7-0.8-1.4-0.9-2.2
		c-0.1-1.5-0.3-3-0.9-4.4c-0.5-1.4-1.2-2.7-2.1-4c-1.5-2.1-3.4-3.7-5.6-4.8c-2.2-1.1-4.6-1.7-7.1-1.7c-2.2,0-4.3,0.4-6.2,1.3
		c-1.9,0.9-3.6,2-5,3.4c-1.4,1.4-2.6,3.1-3.4,5c-0.8,1.9-1.2,4-1.2,6.2c0,2.1,0.4,4,1.1,5.9c0.7,1.9,1.8,3.5,3.3,5
		c0.6,0.7,1,1.5,1,2.4c0.1,0.9-0.1,1.8-0.7,2.6c-0.5,0.8-1.1,1.3-2,1.6c-0.9,0.3-1.8,0.3-2.6,0c-1.3-0.5-2.6-0.8-4-1.1
		c-1.4-0.3-2.7-0.4-4.1-0.4c-3.3,0-6.3,0.6-9.2,1.9c-2.9,1.3-5.4,3-7.5,5.1c-2.1,2.1-3.8,4.6-5.1,7.5c-1.3,2.9-1.9,5.9-1.9,9.2
		c0,3.3,0.6,6.3,1.9,9.2c1.3,2.9,3,5.4,5.1,7.5c2.1,2.1,4.7,3.8,7.5,5.1c2.9,1.2,6,1.9,9.2,1.9h79.3c5.4,0,10.5-1,15.4-3.1
		c4.8-2.1,9-4.9,12.6-8.5c3.6-3.6,6.4-7.8,8.5-12.6c2.1-4.8,3.1-10,3.1-15.4c0-5.4-1-10.5-3.1-15.4s-4.9-9-8.5-12.6
		c-3.6-3.6-7.8-6.4-12.6-8.5C167.4,123.6,162.2,122.6,156.8,122.6z"/>
</g>
</svg>
